<?xml version="1.0" encoding="UTF-8" standalone="no"?>
<!DOCTYPE svg PUBLIC "-//W3C//DTD SVG 1.1//EN" "http://www.w3.org/Graphics/SVG/1.1/DTD/svg11.dtd">
<svg version="1.1" xmlns="http://www.w3.org/2000/svg" xmlns:xlink="http://www.w3.org/1999/xlink" preserveAspectRatio="xMidYMid meet" viewBox="75.01005316720158 231.90431463159362 155.29149307888724 168.73054696949336" width="151.29" height="164.73"><defs><path d="M227.3 232.9L76.01 232.9L76.01 397.63L227.3 397.63L227.3 232.9ZM171.29 366.76C167.36 366.76 135.95 366.76 132.02 366.76C115.92 366.71 102.87 353.66 102.82 337.56C102.82 337.56 102.82 337.56 102.82 337.56C102.87 321.45 115.92 308.4 132.02 308.36C135.06 308.36 159.33 308.36 162.36 308.36C170.86 308.36 177.8 302.07 177.8 293.43C177.8 293.43 177.8 293.43 177.8 293.43C177.78 285.2 171.11 278.52 162.87 278.5C162.59 278.5 161.2 278.5 158.7 278.5L158.7 304.89L143.79 304.89L143.79 263.82C154.86 263.82 161.01 263.82 162.24 263.82C178.55 263.87 191.76 277.09 191.81 293.4C191.81 293.4 191.81 293.4 191.81 293.4C191.81 300.13 189.51 306.66 185.27 311.89C194.66 317.01 200.5 326.84 200.53 337.52C200.46 353.64 187.41 366.71 171.29 366.76Z" id="f40L5ZXNKP"></path><path d="M131.15 322.98C123.12 322.98 116.61 329.49 116.61 337.52C116.61 345.56 123.12 352.07 131.15 352.07C132 352.07 136.21 352.07 143.79 352.07L143.79 326.71L158.7 326.71L158.7 352.07C166.77 352.07 171.26 352.07 172.16 352.07C180.19 352.07 186.7 345.56 186.7 337.52C186.7 329.49 180.19 322.98 172.16 322.98C163.96 322.98 135.25 322.98 131.15 322.98Z" id="aGKpFOzbe"></path></defs><g><g><use xlink:href="#f40L5ZXNKP" opacity="1" fill="#fefefe" fill-opacity="1"></use><g><use xlink:href="#f40L5ZXNKP" opacity="1" fill-opacity="0" stroke="#000000" stroke-width="1" stroke-opacity="0"></use></g></g><g><use xlink:href="#aGKpFOzbe" opacity="1" fill="#ffffff" fill-opacity="1"></use><g><use xlink:href="#aGKpFOzbe" opacity="1" fill-opacity="0" stroke="#000000" stroke-width="1" stroke-opacity="0"></use></g></g></g></svg>