<?xml version="1.0" encoding="UTF-8" standalone="no"?>
<!DOCTYPE svg PUBLIC "-//W3C//DTD SVG 1.1//EN" "http://www.w3.org/Graphics/SVG/1.1/DTD/svg11.dtd">
<svg version="1.1" xmlns="http://www.w3.org/2000/svg" xmlns:xlink="http://www.w3.org/1999/xlink" preserveAspectRatio="xMidYMid meet" viewBox="75.01005316720158 231.90431463159362 448.811181292837 168.73054696949336" width="444.81" height="164.73"><defs><path d="M227.3 232.9L76.01 232.9L76.01 397.63L227.3 397.63L227.3 232.9ZM171.29 366.76C167.36 366.76 135.95 366.76 132.02 366.76C115.92 366.71 102.87 353.66 102.82 337.56C102.82 337.56 102.82 337.56 102.82 337.56C102.87 321.45 115.92 308.4 132.02 308.36C135.06 308.36 159.33 308.36 162.36 308.36C170.86 308.36 177.8 302.07 177.8 293.43C177.8 293.43 177.8 293.43 177.8 293.43C177.78 285.2 171.11 278.52 162.87 278.5C162.59 278.5 161.2 278.5 158.7 278.5L158.7 304.89L143.79 304.89L143.79 263.82C154.86 263.82 161.01 263.82 162.24 263.82C178.55 263.87 191.76 277.09 191.81 293.4C191.81 293.4 191.81 293.4 191.81 293.4C191.81 300.13 189.51 306.66 185.27 311.89C194.66 317.01 200.5 326.84 200.53 337.52C200.46 353.64 187.41 366.71 171.29 366.76Z" id="cJ0J8Eju"></path><path d="M131.15 322.98C123.12 322.98 116.61 329.49 116.61 337.52C116.61 345.56 123.12 352.07 131.15 352.07C132 352.07 136.21 352.07 143.79 352.07L143.79 326.71L158.7 326.71L158.7 352.07C166.77 352.07 171.26 352.07 172.16 352.07C180.19 352.07 186.7 345.56 186.7 337.52C186.7 329.49 180.19 322.98 172.16 322.98C163.96 322.98 135.25 322.98 131.15 322.98Z" id="aGKpFOzbe"></path><path d="M288.53 295.06L272.75 332.41L283.5 332.41L286.14 325.78L300.45 325.78L303.15 332.41L314.17 332.41L298.39 295.06L288.53 295.06ZM289.22 317.79L293.41 307.24L297.54 317.79L289.22 317.79Z" id="b3MiBgM38"></path><path d="M393.13 295.33L383.54 295.33L383.54 332.41L393.71 332.41L393.71 312.07L409.55 332.41L418.56 332.41L418.56 295.33L408.38 295.33L408.38 314.93L408.38 314.93L393.13 295.33Z" id="a26Ae2obH"></path><path d="M348.23 307.98C348.38 304.78 347.2 301.66 344.95 299.38C342.46 296.84 338.5 295.36 332.87 295.36C331.7 295.36 325.87 295.36 315.38 295.36L315.38 332.44L325.65 332.44L325.65 321.17L330.16 321.17L337.63 332.41L349.46 332.41C344.21 324.63 341.29 320.32 340.71 319.45C345.38 317.66 348.41 313.09 348.23 308.09C348.23 308.07 348.23 307.99 348.23 307.98ZM337.9 308.72C337.9 311.42 335.89 313.12 332.39 313.12C331.95 313.12 329.7 313.12 325.65 313.12L325.65 304.22C329.69 304.22 331.94 304.22 332.38 304.22C335.82 304.22 337.94 305.7 337.94 308.61C337.93 308.64 337.91 308.7 337.9 308.72Z" id="a1eLYo2mGy"></path><path d="M488.46 307.98C488.61 304.78 487.42 301.66 485.17 299.38C482.69 296.84 478.72 295.36 473.1 295.36C471.93 295.36 466.08 295.36 455.56 295.36L455.56 332.44L465.84 332.44L465.84 321.17L470.34 321.17L477.82 332.41L489.64 332.41C484.33 324.67 481.38 320.37 480.79 319.51C485.55 317.76 488.64 313.15 488.46 308.09C488.46 308.07 488.46 307.99 488.46 307.98ZM478.13 308.72C478.13 311.42 476.12 313.12 472.62 313.12C472.17 313.12 469.91 313.12 465.84 313.12L465.84 304.22C469.88 304.22 472.12 304.22 472.57 304.22C476.01 304.22 478.13 305.7 478.13 308.61C478.13 308.64 478.13 308.7 478.13 308.72Z" id="b2jZicfPmc"></path><path d="M452.5 295.33L422.67 295.33L422.67 332.41L452.77 332.41L452.77 323.67L432.84 323.67L432.84 317.79L450.65 317.79L450.65 309.68L432.84 309.68L432.84 304.07L452.5 304.07L452.5 304.07L452.5 295.33Z" id="c4cWffO9Kh"></path><path d="M361.99 251.31C361.99 251.31 361.99 251.31 361.99 251.31C361.99 273.56 361.99 285.92 361.99 288.39C361.99 288.39 361.99 288.39 361.99 288.39C355.79 288.39 352.35 288.39 351.66 288.39C351.66 288.39 351.66 288.39 351.66 288.39C351.66 266.14 351.66 253.78 351.66 251.31C351.66 251.31 351.66 251.31 351.66 251.31C357.86 251.31 361.3 251.31 361.99 251.31Z" id="ib9px0Ef2"></path><path d="M322.24 276.05C321.67 276.73 317.12 282.21 316.55 282.9C321.39 287 327.57 289.19 333.92 289.04C342.93 289.04 348.91 284.54 348.91 276.96C348.91 276.95 348.91 276.87 348.91 276.86C348.91 269.92 343.62 267.18 335.08 265.31C329.95 264.15 328.63 263.41 328.63 261.71C328.63 261.7 328.63 261.61 328.63 261.6C328.63 260.28 329.86 259.21 332.34 259.21C336.09 259.36 339.71 260.63 342.73 262.87C343.24 262.14 347.35 256.34 347.87 255.61C343.83 252.39 338.91 250.69 332.61 250.69C323.71 250.69 318.26 255.66 318.26 262.51C318.26 262.52 318.26 262.61 318.26 262.62C318.26 270.24 324.34 272.47 332.23 274.28C337.27 275.44 338.49 276.29 338.49 277.82C338.49 277.83 338.49 277.92 338.49 277.93C338.56 279.54 337.05 280.5 334.25 280.5C329.86 280.45 325.61 278.87 322.24 276.05Z" id="caYL7G20H"></path><path d="M370.36 332.41L370.36 304.32L381.49 304.32L381.49 295.33L348.95 295.33L348.95 304.32L360.08 304.32L360.08 332.41L360.08 332.41L370.36 332.41Z" id="epI28JWtw"></path><path d="M315.71 271.88C315.71 270.51 315.71 263.65 315.71 251.31L305.23 251.31C305.23 263.81 305.23 270.76 305.23 272.15C305.23 277.33 302.53 279.77 298.4 279.77C294.27 279.77 291.56 277.23 291.56 271.88C291.56 270.51 291.56 263.65 291.56 251.31L281.12 251.31C281.12 263.81 281.12 270.76 281.12 272.15C281.17 283.74 287.79 289.08 298.34 289.08C308.87 289.08 315.71 283.84 315.71 271.88Z" id="b2VmJKF47E"></path><path d="M246.21 288.39C257.69 288.39 264.06 288.39 265.34 288.39C274.19 288.39 279.38 284.53 279.38 278.17C279.38 278.16 279.38 278.07 279.38 278.06C279.38 273.03 276.52 270.53 272.02 269.01C275.3 267.58 277.74 265.03 277.74 260.74C277.74 260.73 277.74 260.64 277.74 260.63C277.8 258.4 276.93 256.23 275.35 254.65C273.2 252.5 269.9 251.31 265.23 251.31C263.96 251.31 257.62 251.31 246.21 251.31L246.21 288.39ZM256.23 259.58C260.23 259.58 262.45 259.58 262.9 259.58C265.97 259.58 267.56 260.74 267.56 262.8C267.56 262.81 267.56 262.89 267.56 262.9C267.56 265.05 265.81 266.13 262.69 266.13C262.26 266.13 260.11 266.13 256.24 266.13L256.23 259.58ZM256.23 273.3C260.94 273.3 263.55 273.3 264.07 273.3C267.51 273.3 269.1 274.62 269.1 276.63C269.1 276.64 269.1 276.73 269.1 276.74C269.1 278.89 267.3 280.13 264.18 280.13C263.65 280.13 261 280.13 256.23 280.13L256.23 273.3Z" id="a2GupgfIWH"></path><path d="M490.15 306.66C490.15 314.29 496.23 316.51 504.12 318.31C509.17 319.47 510.38 320.32 510.38 321.86C510.38 321.87 510.38 321.96 510.38 321.97C510.38 323.56 508.9 324.5 506.15 324.5C501.74 324.46 497.49 322.89 494.12 320.06C493.54 320.75 488.97 326.21 488.4 326.89C493.24 331 499.42 333.19 505.77 333.04C514.78 333.04 520.82 328.54 520.82 320.96C520.82 320.95 520.82 320.87 520.82 320.86C520.82 313.91 515.52 311.18 507 309.3C501.86 308.14 500.54 307.4 500.54 305.7C500.54 305.69 500.54 305.6 500.54 305.59C500.54 304.27 501.77 303.22 504.25 303.22C508.01 303.36 511.63 304.63 514.64 306.87C515.15 306.15 519.26 300.34 519.78 299.62C515.76 296.39 510.82 294.69 504.52 294.69C495.6 294.72 490.15 299.67 490.15 306.55C490.15 306.57 490.15 306.65 490.15 306.66Z" id="agfn5mVJm"></path><path d="M246.21 295.33L246.21 332.41L256.49 332.41L256.49 321.81C259.54 321.81 261.24 321.81 261.58 321.81C270.8 321.81 277.52 317.2 277.52 308.46C277.52 308.45 277.52 308.37 277.52 308.36C277.52 300.1 271.49 295.33 262.11 295.33C259.99 295.33 254.69 295.33 246.21 295.33ZM267.24 308.94C267.24 311.85 265.03 313.75 261.37 313.75C261.05 313.75 259.42 313.75 256.49 313.75L256.49 303.96C259.39 303.96 261 303.96 261.32 303.96C265.03 303.96 267.24 305.65 267.24 308.83C267.24 308.85 267.24 308.92 267.24 308.94Z" id="e1aOsnVciv"></path><path d="M392.33 288.39L401.33 288.39L401.33 251.31L391.17 251.31L391.17 270.91L375.92 251.31L366.33 251.31L366.33 288.39L376.5 288.39L376.5 268.05L376.5 268.05L392.33 288.39Z" id="c58bUaC17"></path><path d="M489.08 277.84C489.08 277.86 489.08 277.94 489.08 277.95C489.08 279.53 487.6 280.49 484.85 280.49C480.45 280.44 476.2 278.86 472.83 276.04C472.25 276.72 467.67 282.21 467.1 282.9C471.95 287 478.13 289.19 484.48 289.04C493.48 289.04 499.47 284.54 499.47 276.96C499.47 276.95 499.47 276.87 499.47 276.86C499.47 269.92 494.17 267.18 485.64 265.31C480.5 264.15 479.19 263.41 479.19 261.71C479.19 261.7 479.19 261.61 479.19 261.6C479.19 260.28 480.41 259.21 482.9 259.21C486.65 259.36 490.26 260.63 493.28 262.87C493.79 262.14 497.9 256.34 498.42 255.61C494.39 252.39 489.47 250.69 483.16 250.69C474.27 250.69 468.81 255.66 468.81 262.51C468.81 262.52 468.81 262.61 468.81 262.62C468.85 270.28 474.95 272.5 482.84 274.3C487.87 275.46 489.08 276.31 489.08 277.84Z" id="g12EWm9P1k"></path><path d="M435.54 282.89L435.55 282.88L435.55 279.65L415.63 279.65L415.63 273.77L433.44 273.77L433.44 265.66L415.63 265.66L415.63 260.05L435.28 260.05L435.28 251.31L405.46 251.31L405.46 288.39L435.55 288.39L435.55 282.9L435.55 282.9L435.54 282.89Z" id="b3KTRCVk3"></path><path d="M467.9 276.95C467.9 276.94 467.9 276.86 467.9 276.84C467.9 269.91 462.61 267.17 454.08 265.3C448.94 264.14 447.63 263.39 447.63 261.7C447.63 261.69 447.63 261.6 447.63 261.59C447.63 260.27 448.84 259.2 451.34 259.2C455.09 259.35 458.71 260.62 461.72 262.86C462.24 262.13 466.35 256.33 466.86 255.6C462.83 252.37 457.9 250.68 451.6 250.68C442.7 250.68 437.24 255.65 437.24 262.5C437.24 262.51 437.24 262.6 437.24 262.61C437.24 270.23 443.34 272.46 451.22 274.26C456.25 275.43 457.47 276.27 457.47 277.81C457.47 277.82 457.47 277.91 457.47 277.92C457.47 279.5 455.99 280.46 453.17 280.46C448.77 280.4 444.53 278.83 441.15 276.01C440.78 276.47 438.91 278.76 435.55 282.9C435.55 282.9 435.55 282.9 435.55 282.9C440.4 287 446.57 289.18 452.92 289.03C461.92 289.03 467.9 284.53 467.9 276.95Z" id="h5evXFbs8w"></path><path d="M250.35 369.78C250.35 369.77 250.35 369.73 250.35 369.72C250.35 368.65 251.31 367.84 252.94 367.84C254.52 367.91 256.02 368.48 257.24 369.48C257.39 369.26 258.59 367.54 258.74 367.33C257.12 365.99 255.07 365.28 252.96 365.33C249.79 365.33 247.52 367.22 247.52 369.95C247.52 369.95 247.52 369.95 247.52 369.95C247.52 372.89 249.43 373.89 252.82 374.7C255.78 375.39 256.42 376 256.42 377.14C256.42 377.14 256.42 377.14 256.42 377.14C256.42 378.35 255.34 379.14 253.6 379.14C251.72 379.12 249.92 378.38 248.57 377.08C248.4 377.28 247.05 378.88 246.88 379.08C248.7 380.73 251.08 381.64 253.53 381.63C256.88 381.63 259.22 379.85 259.22 376.87C259.22 376.87 259.22 376.87 259.22 376.87C259.25 374.28 257.5 373.1 254.13 372.27C251.08 371.55 250.35 371 250.35 369.78Z" id="d18x9ahO8y"></path><path d="M324.71 373.28C324.71 373.37 324.71 373.46 324.71 373.55C324.71 373.55 324.71 373.55 324.71 373.55C324.71 378.15 328.44 381.88 333.04 381.88C337.64 381.88 341.37 378.15 341.37 373.55C341.37 373.55 341.37 373.55 341.37 373.55C341.45 369.08 337.89 365.39 333.42 365.31C333.3 365.31 333.18 365.31 333.06 365.32C328.56 365.21 324.82 368.78 324.71 373.28ZM333.31 379.21C333.23 379.22 333.15 379.22 333.06 379.22C330.05 379.17 327.64 376.69 327.68 373.67C327.68 373.63 327.68 373.59 327.69 373.55C327.69 373.55 327.69 373.55 327.69 373.55C327.55 370.59 329.84 368.07 332.81 367.93C332.89 367.93 332.98 367.93 333.06 367.93C336.08 367.97 338.49 370.46 338.44 373.47C338.44 373.51 338.44 373.55 338.44 373.6C338.57 376.56 336.28 379.08 333.31 379.21Z" id="b7P7podoIn"></path><path d="M345.53 369.78C345.53 369.77 345.53 369.73 345.53 369.72C345.53 368.65 346.49 367.84 348.12 367.84C349.7 367.91 351.21 368.48 352.42 369.48C352.57 369.26 353.77 367.54 353.92 367.33C352.3 365.99 350.25 365.28 348.15 365.33C344.97 365.33 342.71 367.22 342.71 369.95C342.71 369.95 342.71 369.95 342.71 369.95C342.71 372.89 344.61 373.89 348.01 374.7C350.96 375.39 351.6 376 351.6 377.14C351.6 377.14 351.6 377.14 351.6 377.14C351.6 378.35 350.52 379.14 348.78 379.14C346.9 379.12 345.1 378.38 343.75 377.08C343.58 377.28 342.23 378.88 342.06 379.08C343.88 380.73 346.26 381.64 348.72 381.63C352.06 381.63 354.4 379.85 354.4 376.87C354.4 376.87 354.4 376.87 354.4 376.87C354.41 374.28 352.66 373.1 349.31 372.27C346.26 371.55 345.53 371 345.53 369.78Z" id="d1Rurj0IJ3"></path><path d="M312.8 373.73C312.8 373.67 312.8 373.61 312.81 373.55C312.81 373.55 312.81 373.55 312.81 373.55C312.67 370.59 314.96 368.07 317.93 367.93C317.97 367.93 318.02 367.93 318.06 367.93C319.75 367.97 321.36 368.68 322.53 369.91C322.7 369.7 324.14 368.04 324.32 367.83C322.68 366.17 320.42 365.27 318.09 365.36C313.64 365.27 309.96 368.8 309.87 373.25C309.87 373.36 309.87 373.48 309.87 373.6C309.87 373.6 309.87 373.6 309.87 373.6C309.77 377.49 312.5 380.89 316.32 381.64C316.2 381.81 315.61 382.69 314.55 384.27L316.96 385.29C317.86 383.18 318.36 382 318.46 381.77C320.76 381.72 322.92 380.7 324.43 378.97C324.25 378.79 322.81 377.33 322.63 377.14C321.47 378.44 319.81 379.19 318.06 379.22C315.1 379.16 312.74 376.7 312.8 373.73Z" id="b1eqvkVtvb"></path><path d="M271.83 374.73L271.83 372.23L263.85 372.23L263.85 368.09L272.87 368.09L272.87 365.59L261.05 365.59L261.05 381.52L272.97 381.52L272.97 379.01L263.85 379.01L263.85 374.73L263.85 374.73L271.83 374.73Z" id="b1BUYEmRbB"></path><path d="M287.82 370.66C287.85 369.38 287.37 368.15 286.5 367.22C285.23 366.11 283.58 365.54 281.9 365.63C281.42 365.63 279.06 365.63 274.8 365.63L274.8 381.56L277.6 381.56L277.6 376L281.1 376L285.01 381.56L288.31 381.56C285.73 377.94 284.3 375.93 284.01 375.53C286.3 375.06 287.92 373 287.82 370.66C287.82 370.66 287.82 370.66 287.82 370.66ZM277.6 373.49L277.6 368.11C280.04 368.11 281.4 368.11 281.67 368.11C283.75 368.11 284.97 369.05 284.97 370.76C284.97 370.76 284.97 370.76 284.97 370.76C284.97 372.37 283.69 373.42 281.69 373.42C281.15 373.43 279.78 373.45 277.6 373.49Z" id="a2vDB9ItWv"></path><path d="M291.02 365.59L287.93 365.59L294.55 381.64L297.01 381.64L303.64 365.59L300.6 365.59L295.83 377.83L295.83 377.83L291.02 365.59Z" id="d24CDaKf15"></path><path d="M307.82 365.59C307.82 365.59 307.82 365.59 307.82 365.59C307.82 375.15 307.82 380.46 307.82 381.52C307.82 381.52 307.82 381.52 307.82 381.52C306.14 381.52 305.21 381.52 305.02 381.52C305.02 381.52 305.02 381.52 305.02 381.52C305.02 371.96 305.02 366.65 305.02 365.59C305.02 365.59 305.02 365.59 305.02 365.59C306.7 365.59 307.63 365.59 307.82 365.59Z" id="alueo67l"></path><path d="M395.04 365.59L395.04 381.52L397.84 381.52L397.84 376.43C399.73 376.43 400.79 376.43 401 376.43C404.5 376.43 407.37 374.56 407.37 370.99C407.37 370.99 407.37 370.94 407.37 370.94C407.36 367.7 405.03 365.59 401.32 365.59C400.48 365.59 398.39 365.59 395.04 365.59ZM401.12 373.87C400.9 373.87 399.83 373.87 397.89 373.87L397.89 368.13C399.83 368.13 400.9 368.13 401.12 368.13C403.2 368.13 404.55 369.11 404.55 370.98C404.55 372.69 403.23 373.87 401.12 373.87Z" id="f4hcVmQoy8"></path><path d="M484.55 365.59C484.55 365.59 484.55 365.59 484.55 365.59C484.55 375.15 484.55 380.46 484.55 381.52C484.55 381.52 484.55 381.52 484.55 381.52C482.87 381.52 481.94 381.52 481.75 381.52C481.75 381.52 481.75 381.52 481.75 381.52C481.75 371.96 481.75 366.65 481.75 365.59C481.75 365.59 481.75 365.59 481.75 365.59C483.43 365.59 484.36 365.59 484.55 365.59Z" id="f182F3bDvq"></path><path d="M492.95 365.47L485.94 381.52L488.8 381.52L490.45 377.67L497.97 377.67L499.59 381.52L502.54 381.52L495.52 365.47L492.95 365.47ZM491.47 375.14L494.2 368.78L496.95 375.14L491.47 375.14Z" id="b7C5rJZ4u4"></path><path d="M479.65 370.66C479.69 369.39 479.22 368.15 478.34 367.22C477.08 366.11 475.42 365.54 473.74 365.63C473.27 365.63 470.9 365.63 466.65 365.63L466.65 381.56L469.44 381.56L469.44 376L472.95 376L476.86 381.56L480.16 381.56C477.58 377.94 476.15 375.93 475.86 375.53C478.15 375.05 479.75 372.99 479.65 370.66C479.65 370.66 479.65 370.66 479.65 370.66ZM469.44 373.49L469.44 368.11C471.89 368.11 473.24 368.11 473.52 368.11C475.59 368.11 476.82 369.05 476.82 370.76C476.82 370.76 476.82 370.76 476.82 370.76C476.82 372.37 475.54 373.42 473.54 373.42C472.99 373.43 471.63 373.45 469.44 373.49Z" id="b30fbGo4U3"></path><path d="M511.87 369.78C511.87 369.77 511.87 369.73 511.87 369.72C511.87 368.65 512.82 367.84 514.46 367.84C516.03 367.91 517.54 368.48 518.76 369.48C518.91 369.26 520.11 367.54 520.26 367.33C518.64 365.99 516.58 365.28 514.48 365.33C511.32 365.33 509.04 367.22 509.04 369.95C509.04 369.95 509.04 369.95 509.04 369.95C509.04 372.89 510.95 373.89 514.35 374.7C517.31 375.39 517.94 376 517.94 377.14C517.94 377.14 517.94 377.14 517.94 377.14C517.94 378.35 516.86 379.14 515.12 379.14C513.24 379.12 511.44 378.38 510.09 377.08C509.92 377.29 508.59 378.98 508.43 379.2C510.24 380.85 512.61 381.76 515.07 381.74C518.42 381.74 520.77 379.97 520.77 376.99C520.77 376.99 520.77 376.99 520.77 376.99C520.77 374.28 519.02 373.1 515.64 372.27C512.6 371.55 511.87 371 511.87 369.78Z" id="a7unyVgnu6"></path><path d="M506.74 365.59C506.74 365.59 506.74 365.59 506.74 365.59C506.74 375.15 506.74 380.46 506.74 381.52C506.74 381.52 506.74 381.52 506.74 381.52C505.06 381.52 504.13 381.52 503.94 381.52C503.94 381.52 503.94 381.52 503.94 381.52C503.94 371.96 503.94 366.65 503.94 365.59C503.94 365.59 503.94 365.59 503.94 365.59C505.62 365.59 506.55 365.59 506.74 365.59Z" id="a3DxPrXc19"></path><path d="M434.48 374.73L434.48 372.23L426.49 372.23L426.49 368.09L435.51 368.09L435.51 365.59L423.69 365.59L423.69 381.52L435.62 381.52L435.62 379.01L426.49 379.01L426.49 374.73L426.49 374.73L434.48 374.73Z" id="hxXpAbRfP"></path><path d="M379.76 365.59L376.79 365.59L376.79 381.52L379.54 381.52L379.54 370.13L384.53 377.61L384.61 377.61L389.65 370.09L389.65 381.52L392.44 381.52L392.44 365.59L389.46 365.59L384.61 373.12L384.61 373.12L379.76 365.59Z" id="ddMMoXA35"></path><path d="M421.76 370.66C421.79 369.38 421.31 368.15 420.44 367.22C419.17 366.11 417.52 365.54 415.84 365.63C415.36 365.63 413 365.63 408.74 365.63L408.74 381.56L411.53 381.56L411.53 376L415.04 376L418.96 381.56L422.26 381.56C419.68 377.94 418.25 375.93 417.96 375.53C420.25 375.05 421.86 372.99 421.76 370.66C421.76 370.66 421.76 370.66 421.76 370.66ZM411.53 373.49L411.53 368.11C413.98 368.11 415.34 368.11 415.61 368.11C417.68 368.11 418.91 369.05 418.91 370.76C418.91 370.76 418.91 370.76 418.91 370.76C418.91 372.37 417.64 373.42 415.63 373.42C415.08 373.43 413.72 373.45 411.53 373.49Z" id="dScIk4nf"></path><path d="M439.81 369.78C439.81 369.77 439.81 369.73 439.81 369.72C439.81 368.65 440.77 367.84 442.4 367.84C443.97 367.91 445.48 368.48 446.7 369.48C446.85 369.26 448.06 367.54 448.21 367.33C446.58 365.99 444.53 365.28 442.42 365.33C439.26 365.33 436.98 367.22 436.98 369.95C436.98 369.95 436.98 369.95 436.98 369.95C436.98 372.89 438.9 373.89 442.29 374.7C445.25 375.39 445.89 376 445.89 377.14C445.89 377.14 445.89 377.14 445.89 377.14C445.89 378.35 444.81 379.14 443.06 379.14C441.18 379.12 439.38 378.38 438.04 377.08C437.87 377.29 436.56 378.98 436.39 379.2C438.21 380.85 440.58 381.76 443.04 381.74C446.38 381.74 448.72 379.97 448.72 376.99C448.72 376.99 448.72 376.99 448.72 376.99C448.7 374.28 446.95 373.1 443.58 372.27C440.53 371.55 439.81 371 439.81 369.78Z" id="bzz7H2ph8"></path><path d="M373.83 374.73L373.83 372.23L365.84 372.23L365.84 368.09L374.85 368.09L374.85 365.59L363.04 365.59L363.04 381.52L374.97 381.52L374.97 379.01L365.84 379.01L365.84 374.73L365.84 374.73L373.83 374.73Z" id="fS9d4bOPy"></path><path d="M455.81 365.47L448.8 381.52L451.67 381.52L453.3 377.67L460.83 377.67L462.44 381.52L465.42 381.52L458.41 365.47L455.81 365.47ZM454.32 375.14L457.06 368.78L459.81 375.14L454.32 375.14Z" id="a11crPwu1H"></path><path d="M520.76 347.59C520.76 347.59 520.76 347.59 520.76 347.59C520.76 349.5 520.76 350.56 520.76 350.77C520.76 350.77 520.76 350.77 520.76 350.77C356.03 350.77 264.52 350.77 246.21 350.77C246.21 350.77 246.21 350.77 246.21 350.77C246.21 348.86 246.21 347.8 246.21 347.59C246.21 347.59 246.21 347.59 246.21 347.59C410.94 347.59 502.45 347.59 520.76 347.59Z" id="b4TUMoFIli"></path></defs><g><g><use xlink:href="#cJ0J8Eju" opacity="1" fill="#ffffff" fill-opacity="1"></use><g><use xlink:href="#cJ0J8Eju" opacity="1" fill-opacity="0" stroke="#000000" stroke-width="1" stroke-opacity="0"></use></g></g><g><use xlink:href="#aGKpFOzbe" opacity="1" fill="#ffffff" fill-opacity="1"></use><g><use xlink:href="#aGKpFOzbe" opacity="1" fill-opacity="0" stroke="#000000" stroke-width="1" stroke-opacity="0"></use></g></g><g><use xlink:href="#b3MiBgM38" opacity="1" fill="#ffffff" fill-opacity="1"></use><g><use xlink:href="#b3MiBgM38" opacity="1" fill-opacity="0" stroke="#000000" stroke-width="1" stroke-opacity="0"></use></g></g><g><use xlink:href="#a26Ae2obH" opacity="1" fill="#ffffff" fill-opacity="1"></use><g><use xlink:href="#a26Ae2obH" opacity="1" fill-opacity="0" stroke="#000000" stroke-width="1" stroke-opacity="0"></use></g></g><g><use xlink:href="#a1eLYo2mGy" opacity="1" fill="#ffffff" fill-opacity="1"></use><g><use xlink:href="#a1eLYo2mGy" opacity="1" fill-opacity="0" stroke="#000000" stroke-width="1" stroke-opacity="0"></use></g></g><g><use xlink:href="#b2jZicfPmc" opacity="1" fill="#ffffff" fill-opacity="1"></use><g><use xlink:href="#b2jZicfPmc" opacity="1" fill-opacity="0" stroke="#000000" stroke-width="1" stroke-opacity="0"></use></g></g><g><use xlink:href="#c4cWffO9Kh" opacity="1" fill="#ffffff" fill-opacity="1"></use><g><use xlink:href="#c4cWffO9Kh" opacity="1" fill-opacity="0" stroke="#000000" stroke-width="1" stroke-opacity="0"></use></g></g><g><use xlink:href="#ib9px0Ef2" opacity="1" fill="#ffffff" fill-opacity="1"></use><g><use xlink:href="#ib9px0Ef2" opacity="1" fill-opacity="0" stroke="#000000" stroke-width="1" stroke-opacity="0"></use></g></g><g><use xlink:href="#caYL7G20H" opacity="1" fill="#ffffff" fill-opacity="1"></use><g><use xlink:href="#caYL7G20H" opacity="1" fill-opacity="0" stroke="#000000" stroke-width="1" stroke-opacity="0"></use></g></g><g><use xlink:href="#epI28JWtw" opacity="1" fill="#ffffff" fill-opacity="1"></use><g><use xlink:href="#epI28JWtw" opacity="1" fill-opacity="0" stroke="#000000" stroke-width="1" stroke-opacity="0"></use></g></g><g><use xlink:href="#b2VmJKF47E" opacity="1" fill="#ffffff" fill-opacity="1"></use><g><use xlink:href="#b2VmJKF47E" opacity="1" fill-opacity="0" stroke="#000000" stroke-width="1" stroke-opacity="0"></use></g></g><g><use xlink:href="#a2GupgfIWH" opacity="1" fill="#ffffff" fill-opacity="1"></use><g><use xlink:href="#a2GupgfIWH" opacity="1" fill-opacity="0" stroke="#000000" stroke-width="1" stroke-opacity="0"></use></g></g><g><use xlink:href="#agfn5mVJm" opacity="1" fill="#ffffff" fill-opacity="1"></use><g><use xlink:href="#agfn5mVJm" opacity="1" fill-opacity="0" stroke="#000000" stroke-width="1" stroke-opacity="0"></use></g></g><g><use xlink:href="#e1aOsnVciv" opacity="1" fill="#ffffff" fill-opacity="1"></use><g><use xlink:href="#e1aOsnVciv" opacity="1" fill-opacity="0" stroke="#000000" stroke-width="1" stroke-opacity="0"></use></g></g><g><use xlink:href="#c58bUaC17" opacity="1" fill="#ffffff" fill-opacity="1"></use><g><use xlink:href="#c58bUaC17" opacity="1" fill-opacity="0" stroke="#000000" stroke-width="1" stroke-opacity="0"></use></g></g><g><use xlink:href="#g12EWm9P1k" opacity="1" fill="#ffffff" fill-opacity="1"></use><g><use xlink:href="#g12EWm9P1k" opacity="1" fill-opacity="0" stroke="#000000" stroke-width="1" stroke-opacity="0"></use></g></g><g><use xlink:href="#b3KTRCVk3" opacity="1" fill="#ffffff" fill-opacity="1"></use><g><use xlink:href="#b3KTRCVk3" opacity="1" fill-opacity="0" stroke="#000000" stroke-width="1" stroke-opacity="0"></use></g></g><g><use xlink:href="#h5evXFbs8w" opacity="1" fill="#ffffff" fill-opacity="1"></use><g><use xlink:href="#h5evXFbs8w" opacity="1" fill-opacity="0" stroke="#000000" stroke-width="1" stroke-opacity="0"></use></g></g><g><use xlink:href="#d18x9ahO8y" opacity="1" fill="#ffffff" fill-opacity="1"></use><g><use xlink:href="#d18x9ahO8y" opacity="1" fill-opacity="0" stroke="#000000" stroke-width="1" stroke-opacity="0"></use></g></g><g><use xlink:href="#b7P7podoIn" opacity="1" fill="#ffffff" fill-opacity="1"></use><g><use xlink:href="#b7P7podoIn" opacity="1" fill-opacity="0" stroke="#000000" stroke-width="1" stroke-opacity="0"></use></g></g><g><use xlink:href="#d1Rurj0IJ3" opacity="1" fill="#ffffff" fill-opacity="1"></use><g><use xlink:href="#d1Rurj0IJ3" opacity="1" fill-opacity="0" stroke="#000000" stroke-width="1" stroke-opacity="0"></use></g></g><g><use xlink:href="#b1eqvkVtvb" opacity="1" fill="#ffffff" fill-opacity="1"></use><g><use xlink:href="#b1eqvkVtvb" opacity="1" fill-opacity="0" stroke="#000000" stroke-width="1" stroke-opacity="0"></use></g></g><g><use xlink:href="#b1BUYEmRbB" opacity="1" fill="#ffffff" fill-opacity="1"></use><g><use xlink:href="#b1BUYEmRbB" opacity="1" fill-opacity="0" stroke="#000000" stroke-width="1" stroke-opacity="0"></use></g></g><g><use xlink:href="#a2vDB9ItWv" opacity="1" fill="#ffffff" fill-opacity="1"></use><g><use xlink:href="#a2vDB9ItWv" opacity="1" fill-opacity="0" stroke="#000000" stroke-width="1" stroke-opacity="0"></use></g></g><g><use xlink:href="#d24CDaKf15" opacity="1" fill="#ffffff" fill-opacity="1"></use><g><use xlink:href="#d24CDaKf15" opacity="1" fill-opacity="0" stroke="#000000" stroke-width="1" stroke-opacity="0"></use></g></g><g><use xlink:href="#alueo67l" opacity="1" fill="#ffffff" fill-opacity="1"></use><g><use xlink:href="#alueo67l" opacity="1" fill-opacity="0" stroke="#000000" stroke-width="1" stroke-opacity="0"></use></g></g><g><use xlink:href="#f4hcVmQoy8" opacity="1" fill="#ffffff" fill-opacity="1"></use><g><use xlink:href="#f4hcVmQoy8" opacity="1" fill-opacity="0" stroke="#000000" stroke-width="1" stroke-opacity="0"></use></g></g><g><use xlink:href="#f182F3bDvq" opacity="1" fill="#ffffff" fill-opacity="1"></use><g><use xlink:href="#f182F3bDvq" opacity="1" fill-opacity="0" stroke="#000000" stroke-width="1" stroke-opacity="0"></use></g></g><g><use xlink:href="#b7C5rJZ4u4" opacity="1" fill="#ffffff" fill-opacity="1"></use><g><use xlink:href="#b7C5rJZ4u4" opacity="1" fill-opacity="0" stroke="#000000" stroke-width="1" stroke-opacity="0"></use></g></g><g><use xlink:href="#b30fbGo4U3" opacity="1" fill="#ffffff" fill-opacity="1"></use><g><use xlink:href="#b30fbGo4U3" opacity="1" fill-opacity="0" stroke="#000000" stroke-width="1" stroke-opacity="0"></use></g></g><g><use xlink:href="#a7unyVgnu6" opacity="1" fill="#ffffff" fill-opacity="1"></use><g><use xlink:href="#a7unyVgnu6" opacity="1" fill-opacity="0" stroke="#000000" stroke-width="1" stroke-opacity="0"></use></g></g><g><use xlink:href="#a3DxPrXc19" opacity="1" fill="#ffffff" fill-opacity="1"></use><g><use xlink:href="#a3DxPrXc19" opacity="1" fill-opacity="0" stroke="#000000" stroke-width="1" stroke-opacity="0"></use></g></g><g><use xlink:href="#hxXpAbRfP" opacity="1" fill="#ffffff" fill-opacity="1"></use><g><use xlink:href="#hxXpAbRfP" opacity="1" fill-opacity="0" stroke="#000000" stroke-width="1" stroke-opacity="0"></use></g></g><g><use xlink:href="#ddMMoXA35" opacity="1" fill="#ffffff" fill-opacity="1"></use><g><use xlink:href="#ddMMoXA35" opacity="1" fill-opacity="0" stroke="#000000" stroke-width="1" stroke-opacity="0"></use></g></g><g><use xlink:href="#dScIk4nf" opacity="1" fill="#ffffff" fill-opacity="1"></use><g><use xlink:href="#dScIk4nf" opacity="1" fill-opacity="0" stroke="#000000" stroke-width="1" stroke-opacity="0"></use></g></g><g><use xlink:href="#bzz7H2ph8" opacity="1" fill="#ffffff" fill-opacity="1"></use><g><use xlink:href="#bzz7H2ph8" opacity="1" fill-opacity="0" stroke="#000000" stroke-width="1" stroke-opacity="0"></use></g></g><g><use xlink:href="#fS9d4bOPy" opacity="1" fill="#ffffff" fill-opacity="1"></use><g><use xlink:href="#fS9d4bOPy" opacity="1" fill-opacity="0" stroke="#000000" stroke-width="1" stroke-opacity="0"></use></g></g><g><use xlink:href="#a11crPwu1H" opacity="1" fill="#ffffff" fill-opacity="1"></use><g><use xlink:href="#a11crPwu1H" opacity="1" fill-opacity="0" stroke="#000000" stroke-width="1" stroke-opacity="0"></use></g></g><g><use xlink:href="#b4TUMoFIli" opacity="1" fill="#ffffff" fill-opacity="1"></use><g><use xlink:href="#b4TUMoFIli" opacity="1" fill-opacity="0" stroke="#000000" stroke-width="1" stroke-opacity="0"></use></g></g></g></svg>