<?xml version="1.0" encoding="utf-8"?>
<!-- Generator: Adobe Illustrator 22.0.1, SVG Export Plug-In . SVG Version: 6.00 Build 0)  -->
<svg version="1.1" id="Camada_1" xmlns="http://www.w3.org/2000/svg" xmlns:xlink="http://www.w3.org/1999/xlink" x="0px" y="0px"
	 viewBox="0 0 189.7 34.7" style="enable-background:new 0 0 189.7 34.7;" xml:space="preserve">
<style type="text/css">
	.st0{fill-rule:evenodd;clip-rule:evenodd;fill:#FFFFFF;}
</style>
<g>
	<polygon class="st0" points="34.8,30.5 26.8,30.5 34.9,16.3 26.8,2.1 34.8,2.1 42.9,16.3 	"/>
	<polygon class="st0" points="14.3,22.8 26.3,3 30.2,9.7 18.1,29.6 	"/>
	<polygon class="st0" points="9.6,30.5 17.6,30.5 9.4,16.3 17.6,2.1 9.6,2.1 1.4,16.3 	"/>
</g>
<path class="st0" d="M71.4,29.8v-2.1c0-0.6-0.4-1.1-1.5-1.1h-1.7v4.3h1.7C71,30.9,71.4,30.4,71.4,29.8L71.4,29.8z M70.4,29.6
	c0,0.3-0.1,0.5-0.6,0.5h-0.6v-2.6h0.6c0.5,0,0.6,0.2,0.6,0.5V29.6L70.4,29.6z M76.3,30.9v-0.9h-1.7v-0.9h1.6v-0.9h-1.6v-0.8h1.7
	v-0.9h-2.7v4.3H76.3L76.3,30.9z M81.3,29.7c0-0.8-0.1-1.1-1.2-1.3c-0.7-0.2-0.7-0.2-0.7-0.6c0-0.3,0.1-0.4,0.5-0.4
	c0.4,0,0.7,0,1.2,0.1l0.1-0.8c-0.5-0.1-0.9-0.1-1.3-0.1c-1.2,0-1.5,0.3-1.5,1.2c0,0.9,0.2,1.1,1.2,1.4c0.7,0.2,0.7,0.2,0.7,0.6
	c0,0.4-0.1,0.5-0.6,0.5c-0.4,0-0.8-0.1-1.2-0.2l-0.2,0.7c0.4,0.2,0.9,0.3,1.4,0.3C81,31,81.3,30.6,81.3,29.7L81.3,29.7z M86.1,30.9
	v-0.9h-1.7v-0.9h1.6v-0.9h-1.6v-0.8h1.7v-0.9h-2.7v4.3H86.1L86.1,30.9z M90.6,30.9h1.2v-4.3h-0.9v3l-1.4-3h-1.2v4.3h0.9v-2.8
	L90.6,30.9L90.6,30.9z M97.4,26.6h-1l-0.9,3.4l-0.9-3.4h-1l1.2,4.3h1.4L97.4,26.6L97.4,26.6z M102.5,27.9c0-0.7-0.5-1.3-1.7-1.3
	c-1.2,0-1.7,0.7-1.7,1.3v1.8c0,0.7,0.5,1.3,1.7,1.3c1.2,0,1.7-0.7,1.7-1.3V27.9L102.5,27.9z M101.5,29.6c0,0.3-0.2,0.5-0.7,0.5
	c-0.5,0-0.7-0.2-0.7-0.5V28c0-0.3,0.2-0.5,0.7-0.5c0.5,0,0.7,0.2,0.7,0.5V29.6L101.5,29.6z M107.3,30.9v-0.9h-1.7v-3.4h-1v4.3H107.3
	L107.3,30.9z M112.7,26.6h-1l-0.9,3.4l-0.9-3.4h-1l1.2,4.3h1.4L112.7,26.6L112.7,26.6z M115.5,30.9v-4.3h-1v4.3H115.5L115.5,30.9z
	 M119.5,30.4h0.9l0.7-1.8l0.1,2.4h0.9l-0.2-4.3h-1l-1,2.7l-1-2.7h-1l-0.2,4.3h0.9l0.1-2.4L119.5,30.4L119.5,30.4z M127,30.9v-0.9
	h-1.7v-0.9h1.6v-0.9h-1.6v-0.8h1.7v-0.9h-2.7v4.3H127L127,30.9z M131.5,30.9h1.2v-4.3h-0.9v3l-1.4-3h-1.2v4.3h0.9v-2.8L131.5,30.9
	L131.5,30.9z M137.9,27.5v-0.9h-3.3v0.9h1.2v3.4h1v-3.4H137.9L137.9,27.5z M143,27.9c0-0.7-0.5-1.3-1.7-1.3c-1.2,0-1.7,0.7-1.7,1.3
	v1.8c0,0.7,0.5,1.3,1.7,1.3c1.2,0,1.7-0.7,1.7-1.3V27.9L143,27.9z M142.1,29.6c0,0.3-0.2,0.5-0.7,0.5c-0.5,0-0.7-0.2-0.7-0.5V28
	c0-0.3,0.2-0.5,0.7-0.5c0.5,0,0.7,0.2,0.7,0.5V29.6L142.1,29.6z M154.9,26.6h-1l-0.7,3.1l-0.7-3.1h-1.2l-0.7,3.1l-0.7-3.1h-1
	l1.1,4.3h1.2l0.7-3.3l0.7,3.3h1.2L154.9,26.6L154.9,26.6z M159.5,30.9v-0.9h-1.7v-0.9h1.6v-0.9h-1.6v-0.8h1.7v-0.9h-2.7v4.3H159.5
	L159.5,30.9z M164.7,29.9v-0.4c0-0.4-0.3-0.7-0.6-0.8c0.3-0.1,0.5-0.4,0.5-0.7v-0.4c0-0.6-0.3-0.9-1.2-0.9h-1.7v4.3h1.8
	C164.3,30.9,164.7,30.5,164.7,29.9L164.7,29.9z M163.6,28.1c0,0.2-0.1,0.3-0.4,0.3h-0.6v-1h0.6c0.3,0,0.4,0.1,0.4,0.3V28.1
	L163.6,28.1z M163.7,29.8c0,0.3-0.2,0.4-0.5,0.4h-0.6v-1h0.7c0.3,0,0.4,0.1,0.4,0.4V29.8z"/>
<g>
	<path class="st0" d="M57.2,21h-3.3v0c-0.2,0-0.3-0.1-0.4-0.3l-2.1-5.2l-0.2,7.1l0,0c0,0.2-0.2,0.4-0.4,0.4h-3.6v0l0,0
		c-0.2,0-0.4-0.2-0.4-0.4l0.7-16.5c0-0.2,0.2-0.4,0.4-0.4h3.7c0.2,0,0.3,0.1,0.4,0.3l3.6,9.5l3.6-9.4c0.1-0.2,0.2-0.3,0.4-0.3h3.7v0
		c0.2,0,0.4,0.2,0.4,0.4l0.7,16.6c0,0.2-0.2,0.4-0.4,0.4h-3.6v0c-0.2,0-0.4-0.2-0.4-0.4l-0.2-7.2l-2.1,5.1
		C57.6,20.9,57.4,21,57.2,21L57.2,21z M71.5,5.8h5v0c0.2,0,0.4,0.1,0.4,0.3l5.1,16.5c0,0,0,0.1,0,0.2c0,0.2-0.2,0.4-0.4,0.4h-3.9
		c-0.2,0-0.4-0.1-0.4-0.3l-0.8-2.9h-4.9l-0.8,2.9c0,0.2-0.2,0.3-0.4,0.3h-3.9v0c0,0-0.1,0-0.1,0c-0.2-0.1-0.4-0.3-0.3-0.5l5-16.5
		C71.1,5.9,71.3,5.8,71.5,5.8L71.5,5.8z M75.3,16L74,11.1L72.6,16H75.3L75.3,16z M94.9,14.4c0.7,0.9,0.8,2,0.8,3.7
		c0,1.8-0.3,3.1-1.3,4c-1,0.9-2.6,1.3-5.2,1.3c-1,0-2-0.1-2.9-0.3c-1-0.2-1.8-0.5-2.6-0.8c-0.2-0.1-0.3-0.3-0.3-0.5L84,19l0,0
		c0.1-0.2,0.3-0.4,0.5-0.3c0.7,0.2,1.5,0.4,2.3,0.6c0.8,0.1,1.6,0.2,2.4,0.2c0.9,0,1.3-0.1,1.6-0.3c0.2-0.2,0.3-0.5,0.3-1.1
		c0-0.6,0-1-0.2-1.1c-0.3-0.2-0.9-0.4-2.2-0.7c-2.1-0.5-3.3-0.9-4-1.7c-0.7-0.9-0.9-2-0.9-3.9c0-1.8,0.3-3,1.3-3.9
		c0.9-0.8,2.5-1.2,4.8-1.2c0.8,0,1.6,0,2.5,0.1c0.8,0.1,1.7,0.2,2.6,0.4c0.2,0,0.4,0.2,0.3,0.5l-0.4,3.2c0,0.2-0.3,0.4-0.5,0.3
		c-0.9-0.2-1.7-0.3-2.4-0.4c-0.7-0.1-1.4-0.1-2.1-0.1c-0.7,0-1.2,0.1-1.4,0.2c-0.2,0.1-0.2,0.4-0.2,0.9c0,0.7,0,1,0.2,1.2
		c0.3,0.2,0.9,0.4,2.1,0.7l0,0C93,13,94.2,13.6,94.9,14.4L94.9,14.4z M110.5,6.2v3.3c0,0.2-0.2,0.4-0.4,0.4h-4v12.8
		c0,0.2-0.2,0.4-0.4,0.4h-3.7c-0.2,0-0.4-0.2-0.4-0.4V9.9h-4c-0.2,0-0.4-0.2-0.4-0.4V6.2c0-0.2,0.2-0.4,0.4-0.4H110
		C110.3,5.8,110.5,6,110.5,6.2L110.5,6.2z M123.7,19.4v3.3c0,0.2-0.2,0.4-0.4,0.4h-10.4c-0.2,0-0.4-0.2-0.4-0.4V6.2
		c0-0.2,0.2-0.4,0.4-0.4h10.4c0.2,0,0.4,0.2,0.4,0.4v3.3c0,0.2-0.2,0.4-0.4,0.4H117v2.2h5.7c0.2,0,0.4,0.2,0.4,0.4v3.3
		c0,0.2-0.2,0.4-0.4,0.4H117V19h6.3C123.5,19,123.7,19.2,123.7,19.4L123.7,19.4z M141,23.2h-4.4c-0.1,0-0.3-0.1-0.3-0.2l-3.5-5h-1.5
		v4.7c0,0.2-0.2,0.4-0.4,0.4H127c-0.2,0-0.4-0.2-0.4-0.4V6.2c0-0.2,0.2-0.4,0.4-0.4h6.9c2.1,0,3.6,0.4,4.6,1.3
		c1,0.9,1.4,2.2,1.4,3.8v2c0,1.1-0.2,2-0.6,2.8c-0.4,0.6-0.9,1.1-1.6,1.5l3.7,5.2c0.1,0.1,0.1,0.2,0.1,0.3
		C141.5,23,141.3,23.2,141,23.2L141,23.2z M135,13.6c0.2-0.2,0.3-0.6,0.3-1.1v-1.3c0-0.5-0.1-0.8-0.3-1c-0.2-0.2-0.6-0.3-1.3-0.3
		h-2.5v4h2.5C134.4,13.9,134.8,13.8,135,13.6L135,13.6z"/>
	<path class="st0" d="M155.4,6.2v3.3c0,0.2-0.2,0.4-0.4,0.4h-4v12.8c0,0.2-0.2,0.4-0.4,0.4h-3.7c-0.2,0-0.4-0.2-0.4-0.4V9.9h-4
		c-0.2,0-0.4-0.2-0.4-0.4V6.2c0-0.2,0.2-0.4,0.4-0.4H155C155.2,5.8,155.4,6,155.4,6.2L155.4,6.2z M161.9,5.8h5v0
		c0.2,0,0.4,0.1,0.4,0.3l5.1,16.5c0,0,0,0.1,0,0.2c0,0.2-0.2,0.4-0.4,0.4H168c-0.2,0-0.4-0.1-0.4-0.3l-0.8-2.9h-4.9l-0.8,2.9
		c0,0.2-0.2,0.3-0.4,0.3h-3.9v0c0,0-0.1,0-0.1,0c-0.2-0.1-0.4-0.3-0.3-0.5l5-16.5C161.5,5.9,161.6,5.8,161.9,5.8L161.9,5.8z
		 M165.7,16l-1.3-4.9L163,16H165.7L165.7,16z M186.9,14.4v7.8c0,0.2-0.1,0.4-0.3,0.4c-0.9,0.3-1.9,0.5-2.9,0.6c-1,0.1-2,0.2-3,0.2
		c-2.1,0-3.6-0.5-4.7-1.4c-1.2-1-1.8-2.4-1.8-4.1V11c0-1.7,0.6-3.1,1.7-4.1c1.1-0.9,2.7-1.4,4.7-1.4c0.9,0,1.8,0.1,2.6,0.1
		c1,0.1,2,0.2,2.7,0.4c0.2,0,0.4,0.3,0.3,0.5L186,9.8c0,0.2-0.3,0.4-0.5,0.4c-0.7-0.1-1.6-0.2-2.4-0.3c-0.9-0.1-1.7-0.1-2.3-0.1
		c-0.8,0-1.3,0.2-1.5,0.5c-0.3,0.3-0.4,0.8-0.4,1.3v5.7c0,0.6,0.1,1.1,0.4,1.4c0.3,0.3,0.7,0.5,1.5,0.5c0.4,0,0.7,0,1,0
		c0.2,0,0.5,0,0.8-0.1v-4.7c0-0.2,0.2-0.4,0.4-0.4h3.5C186.7,14,186.9,14.2,186.9,14.4z"/>
</g>
</svg>
